<svg width="702" height="423" viewBox="0 0 702 423" fill="none" xmlns="http://www.w3.org/2000/svg">
<line x1="48.7934" y1="0.00207333" x2="44.6467" y2="418.814" stroke="#E2EFFE" stroke-width="0.418832"/>
<line x1="78.1117" y1="0.00207333" x2="73.9651" y2="418.814" stroke="#E2EFFE" stroke-width="0.418832"/>
<line x1="107.43" y1="0.00207333" x2="103.283" y2="418.814" stroke="#E2EFFE" stroke-width="0.418832"/>
<line x1="136.748" y1="0.00207333" x2="132.602" y2="418.814" stroke="#E2EFFE" stroke-width="0.418832"/>
<line x1="166.067" y1="0.00207333" x2="161.92" y2="418.814" stroke="#E2EFFE" stroke-width="0.418832"/>
<line x1="195.385" y1="0.00207333" x2="191.239" y2="418.814" stroke="#E2EFFE" stroke-width="0.418832"/>
<line x1="224.704" y1="0.00207333" x2="220.557" y2="418.814" stroke="#E2EFFE" stroke-width="0.418832"/>
<line x1="254.022" y1="0.00207333" x2="249.875" y2="418.814" stroke="#E2EFFE" stroke-width="0.418832"/>
<line x1="283.34" y1="0.00207333" x2="279.194" y2="418.814" stroke="#E2EFFE" stroke-width="0.418832"/>
<line x1="312.659" y1="0.00207333" x2="308.512" y2="418.814" stroke="#E2EFFE" stroke-width="0.418832"/>
<line x1="341.977" y1="0.00207333" x2="337.83" y2="418.814" stroke="#E2EFFE" stroke-width="0.418832"/>
<line x1="371.295" y1="0.00207333" x2="367.149" y2="418.814" stroke="#E2EFFE" stroke-width="0.418832"/>
<line x1="400.612" y1="0.00207333" x2="396.465" y2="418.814" stroke="#E2EFFE" stroke-width="0.418832"/>
<line x1="429.93" y1="0.00207333" x2="425.783" y2="418.814" stroke="#E2EFFE" stroke-width="0.418832"/>
<line x1="459.248" y1="0.00207333" x2="455.102" y2="418.814" stroke="#E2EFFE" stroke-width="0.418832"/>
<line x1="488.567" y1="0.00207333" x2="484.42" y2="418.814" stroke="#E2EFFE" stroke-width="0.418832"/>
<line x1="517.887" y1="0.00207333" x2="513.74" y2="418.814" stroke="#E2EFFE" stroke-width="0.418832"/>
<line x1="547.204" y1="0.00207333" x2="543.057" y2="418.814" stroke="#E2EFFE" stroke-width="0.418832"/>
<line x1="576.522" y1="0.00207333" x2="572.375" y2="418.814" stroke="#E2EFFE" stroke-width="0.418832"/>
<line x1="605.84" y1="4.19037" x2="601.694" y2="423.002" stroke="#E2EFFE" stroke-width="0.418832"/>
<line x1="635.159" y1="4.19037" x2="631.012" y2="423.002" stroke="#E2EFFE" stroke-width="0.418832"/>
<line x1="664.477" y1="4.19037" x2="660.33" y2="423.002" stroke="#E2EFFE" stroke-width="0.418832"/>
<line y1="28.2712" x2="701.963" y2="28.2712" stroke="#E2EFFE" stroke-width="0.418832"/>
<line y1="53.4011" x2="701.963" y2="53.4011" stroke="#E2EFFE" stroke-width="0.418832"/>
<line y1="78.5311" x2="701.963" y2="78.5311" stroke="#E2EFFE" stroke-width="0.418832"/>
<line y1="103.661" x2="701.963" y2="103.661" stroke="#E2EFFE" stroke-width="0.418832"/>
<line y1="128.791" x2="701.963" y2="128.791" stroke="#E2EFFE" stroke-width="0.418832"/>
<line y1="153.921" x2="701.963" y2="153.921" stroke="#E2EFFE" stroke-width="0.418832"/>
<line y1="179.051" x2="701.963" y2="179.051" stroke="#E2EFFE" stroke-width="0.418832"/>
<line y1="204.181" x2="701.963" y2="204.181" stroke="#E2EFFE" stroke-width="0.418832"/>
<line y1="229.311" x2="701.963" y2="229.311" stroke="#E2EFFE" stroke-width="0.418832"/>
<line y1="254.441" x2="701.963" y2="254.441" stroke="#E2EFFE" stroke-width="0.418832"/>
<line y1="279.57" x2="701.963" y2="279.57" stroke="#E2EFFE" stroke-width="0.418832"/>
<line y1="304.7" x2="701.963" y2="304.7" stroke="#E2EFFE" stroke-width="0.418832"/>
<line y1="329.83" x2="701.963" y2="329.83" stroke="#E2EFFE" stroke-width="0.418832"/>
<line y1="354.96" x2="701.963" y2="354.96" stroke="#E2EFFE" stroke-width="0.418832"/>
<line y1="380.09" x2="701.963" y2="380.09" stroke="#E2EFFE" stroke-width="0.418832"/>
<line y1="405.22" x2="701.963" y2="405.22" stroke="#E2EFFE" stroke-width="0.418832"/>
<rect opacity="0.4" x="104.709" y="204.39" width="29.3183" height="25.1299" fill="#0C88ED" fill-opacity="0.15"/>
<rect opacity="0.4" x="75.3887" y="229.52" width="29.3183" height="25.1299" fill="#0C88ED" fill-opacity="0.15"/>
<rect opacity="0.4" x="104.709" y="254.65" width="29.3183" height="25.1299" fill="#0C88ED" fill-opacity="0.15"/>
<rect opacity="0.4" x="135.701" y="129" width="29.3183" height="25.1299" fill="#0C88ED" fill-opacity="0.15"/>
<rect opacity="0.4" x="312.449" y="28.4806" width="29.3183" height="25.1299" fill="#0C88ED" fill-opacity="0.15"/>
<rect opacity="0.4" x="428.885" y="78.7405" width="29.3183" height="25.1299" fill="#0C88ED" fill-opacity="0.15"/>
<rect opacity="0.4" x="223.656" y="103.87" width="29.3183" height="25.1299" fill="#0C88ED" fill-opacity="0.15"/>
<rect opacity="0.4" x="488.357" y="28.4806" width="29.3183" height="25.1299" fill="#0C88ED" fill-opacity="0.15"/>
<rect opacity="0.4" x="574.639" y="103.87" width="29.3183" height="25.1299" fill="#0C88ED" fill-opacity="0.15"/>
<rect opacity="0.4" x="634.949" y="129" width="29.3183" height="25.1299" fill="#0C88ED" fill-opacity="0.15"/>
<rect opacity="0.4" x="662.592" y="154.13" width="29.3183" height="25.1299" fill="#0C88ED" fill-opacity="0.15"/>
<rect opacity="0.4" x="107.221" y="53.6105" width="29.3183" height="25.1299" fill="#0C88ED" fill-opacity="0.15"/>
<rect opacity="0.4" x="77.9023" y="78.7405" width="29.3183" height="25.1299" fill="#0C88ED" fill-opacity="0.15"/>
<rect opacity="0.4" x="18.4277" y="129" width="29.3183" height="25.1299" fill="#0C88ED" fill-opacity="0.15"/>
<rect opacity="0.4" x="486.684" y="179.26" width="29.3183" height="25.1299" fill="#0C88ED" fill-opacity="0.15"/>
<rect opacity="0.4" x="193.5" y="154.13" width="29.3183" height="25.1299" fill="#0C88ED" fill-opacity="0.15"/>
<rect opacity="0.4" x="605.631" y="53.6105" width="29.3183" height="25.1299" fill="#0C88ED" fill-opacity="0.15"/>
</svg>
